<svg xmlns="http://www.w3.org/2000/svg" xmlns:xlink="http://www.w3.org/1999/xlink" fill="none" version="1.1" width="522" height="484" viewBox="0 0 522 484"><g style="mix-blend-mode:passthrough"><g><path d="M91,332C91,376.183,126.8172,412,171,412L351,412C395.183,412,431,376.183,431,332L431,152C431,107.8172,395.183,72,351,72L171,72C126.8172,72,91,107.8172,91,152L91,332Z" fill="#141414" fill-opacity="1"/></g><g style="mix-blend-mode:passthrough" transform="matrix(0.7071067690849304,0.7071067690849304,-0.7071067690849304,0.7071067690849304,85.06035727262497,-203.3538562655449)"><path d="M360.0545,156.283C339.2046,162.298,339.2046,191.841,360.0545,197.856L413.56100000000004,213.291C420.69100000000003,215.348,426.27,220.916,428.34000000000003,228.043L443.901,281.617C449.943,302.416,479.40999999999997,302.416,485.452,281.617L501.174,227.489C503.156,220.667,508.36,215.253,515.0989999999999,213.003L559.4300000000001,198.203C578.935,191.691,579.207,164.199,559.835,157.302L514.769,141.257C508.22,138.925,503.19,133.588,501.25,126.911L485.452,72.5222C479.40999999999997,51.7232,449.943,51.7232,443.901,72.5222L428.34000000000003,126.096C426.27,133.223,420.69100000000003,138.791,413.56100000000004,140.848L360.0545,156.283Z" fill="#FBC200" fill-opacity="1"/></g><g style="mix-blend-mode:passthrough" transform="matrix(0.7071067690849304,0.7071067690849304,-0.7071067690849304,0.7071067690849304,72.93041449785233,-176.06958550214767)"><path d="M321.0545,155.283C300.2046,161.298,300.2046,190.841,321.0545,196.856L374.56100000000004,212.291C381.69100000000003,214.348,387.27,219.916,389.34000000000003,227.043L404.901,280.617C410.943,301.416,440.40999999999997,301.416,446.452,280.617L462.174,226.489C464.156,219.667,469.36,214.253,476.099,212.003L520.4300000000001,197.203C539.935,190.691,540.207,163.199,520.835,156.302L475.769,140.257C469.22,137.925,464.19,132.588,462.25,125.911L446.452,71.5222C440.40999999999997,50.7232,410.943,50.7232,404.901,71.5222L389.34000000000003,125.096C387.27,132.223,381.69100000000003,137.791,374.56100000000004,139.848L321.0545,155.283Z" fill="#E23F5C" fill-opacity="0.8999999761581421"/></g></g></svg>